<svg width="20" height="20" viewBox="0 0 20 20" fill="none" xmlns="http://www.w3.org/2000/svg">
<g id="Icons">
<path id="Vector" d="M13.5 3.33325C13.4999 2.70251 13.312 2.08473 12.958 1.55166C12.604 1.01859 12.0985 0.592112 11.5002 0.321757C10.9019 0.0514017 10.2353 -0.0517334 9.57792 0.0243308C8.92051 0.100395 8.29925 0.352537 7.7863 0.75147C7.27335 1.1504 6.88975 1.67976 6.68007 2.27804C6.47039 2.87633 6.44323 3.519 6.60174 4.1314C6.76025 4.74381 7.09792 5.30082 7.57555 5.73773C8.05317 6.17464 8.65114 6.47353 9.3 6.59968V18.3991C9.30008 18.5762 9.33711 18.7515 9.40894 18.9149L9.8495 19.915C9.86426 19.9407 9.88603 19.9622 9.91251 19.9771C9.93899 19.9921 9.96921 20 10 20C10.0308 20 10.061 19.9921 10.0875 19.9771C10.114 19.9622 10.1357 19.9407 10.1505 19.915L10.5911 18.9149C10.6629 18.7515 10.6999 18.5762 10.7 18.3991V6.59968C11.49 6.44505 12.1998 6.03573 12.7099 5.44072C13.2199 4.8457 13.499 4.10139 13.5 3.33325ZM11.05 3.33325C10.8423 3.33325 10.6393 3.2746 10.4667 3.16471C10.294 3.05482 10.1594 2.89864 10.0799 2.7159C10.0005 2.53317 9.97966 2.33209 10.0202 2.1381C10.0607 1.9441 10.1607 1.76591 10.3075 1.62605C10.4544 1.48619 10.6415 1.39095 10.8452 1.35236C11.0488 1.31377 11.26 1.33358 11.4518 1.40927C11.6437 1.48496 11.8077 1.61314 11.923 1.7776C12.0384 1.94205 12.1 2.13541 12.1 2.3332C12.1 2.59843 11.9894 2.8528 11.7925 3.04034C11.5955 3.22789 11.3285 3.33325 11.05 3.33325Z" fill="#677482"/>
</g>
</svg>
