<svg width="18" height="21" viewBox="0 0 18 21" fill="none" xmlns="http://www.w3.org/2000/svg">
<path id="Vector" d="M4.96831 0.5C3.7835 0.5 2.64557 0.986408 1.80858 1.84375C0.971579 2.70109 0.5 3.86028 0.5 5.07161V11.1693C0.501274 11.5376 0.796367 11.8347 1.15748 11.8333H6.38795H7.03905H7.04416V5.17057C7.04416 3.33815 7.86626 1.62755 9.24257 0.5H5.07938H4.96831ZM12.9206 0.505208C12.1302 0.505208 11.3398 0.713928 10.6328 1.13021C9.21837 1.96312 8.34635 3.5038 8.34635 5.17057V11.8333H10.9622H16.8438C17.2049 11.8347 17.4987 11.5376 17.5 11.1693V5.17057C17.5 4.96177 17.486 4.75447 17.4591 4.55078C17.4324 4.34768 17.392 4.14834 17.3404 3.95312C17.3191 3.87311 17.2867 3.79727 17.2613 3.71875C17.1617 3.41307 17.0395 3.1166 16.8821 2.83854C16.7834 2.66413 16.6739 2.49627 16.554 2.33594C16.498 2.26102 16.432 2.19386 16.3714 2.1224C16.302 2.04073 16.2372 1.95573 16.1621 1.87891C15.8809 1.59131 15.5608 1.33845 15.2071 1.13021C14.726 0.846919 14.2058 0.667498 13.6739 0.576823C13.4811 0.549857 13.2878 0.532286 13.0942 0.52474C13.0894 0.52304 13.085 0.521111 13.0802 0.519531C13.0605 0.515128 13.0402 0.514121 13.0202 0.511719C12.9869 0.510978 12.9539 0.505208 12.9206 0.505208ZM10.8946 5.17057C10.9171 5.16938 10.9397 5.16938 10.9622 5.17057H14.8841C15.055 5.17444 15.2175 5.24637 15.337 5.37098C15.4565 5.49558 15.5234 5.66295 15.5234 5.83724C15.5234 6.01153 15.4565 6.1789 15.337 6.3035C15.2175 6.4281 15.055 6.50004 14.8841 6.5039H10.9622C10.7912 6.5091 10.6249 6.44576 10.4991 6.32746C10.3732 6.20917 10.2978 6.04531 10.2889 5.87099C10.2801 5.69668 10.3385 5.52576 10.4517 5.39484C10.5649 5.26392 10.7239 5.18342 10.8946 5.17057ZM7.03905 13.168V19.8359C7.04036 20.2042 7.33414 20.5014 7.69525 20.5H9.65365C10.0129 20.4987 10.3035 20.2023 10.3047 19.8359V13.168H7.03905Z" fill="#677482"/>
</svg>
